<?xml version="1.0" encoding="utf-8"?><svg xmlns="http://www.w3.org/2000/svg" xmlns:xlink="http://www.w3.org/1999/xlink" width="1504" height="860" preserveAspectRatio="xMidYMid" viewBox="0 0 1504 860" style="z-index:1;margin-right:-2px;display:block;background-repeat-y:initial;background-repeat-x:initial;background-color:rgb(255, 255, 255);animation-play-state:paused" ><g transform="translate(752,430) scale(1,1) translate(-752,-430)" style="transform:matrix(1, 0, 0, 1, 0, 0);animation-play-state:paused" ><linearGradient id="lg-0.9498977165965765" x1="0" x2="1" y1="0" y2="0" style="animation-play-state:paused" ><stop stop-color="#ff00ff" offset="0" style="animation-play-state:paused" ></stop>

  
<stop stop-color="#00ffff" offset="1" style="animation-play-state:paused" ></stop></linearGradient>
<path d="M 0 0 M 0 819.144 Q 150.4 702.03 300.8 695.926 T 601.6 735.433 T 902.4 699.799 T 1203.2 684.872 T 1504 653.919 L 1504 202.901 Q 1353.6 188.046 1203.2 184.238 T 902.4 157.273 T 601.6 146.342 T 300.8 145.309 T 0 118.634 Z" fill="url(#lg-0.9498977165965765)" opacity="0.4" style="opacity:0.4;animation-play-state:paused" ></path>
<path d="M 0 0 M 0 755.221 Q 150.4 719.757 300.8 716.409 T 601.6 690.188 T 902.4 680.334 T 1203.2 665.409 T 1504 657.63 L 1504 219.234 Q 1353.6 208.021 1203.2 205.525 T 902.4 154.009 T 601.6 104.125 T 300.8 128.702 T 0 59.6984 Z" fill="url(#lg-0.9498977165965765)" opacity="0.4" style="opacity:0.4;animation-play-state:paused" ></path>
<path d="M 0 0 M 0 735.307 Q 150.4 776.444 300.8 775.274 T 601.6 698.48 T 902.4 669.139 T 1203.2 658.471 T 1504 605.779 L 1504 285.648 Q 1353.6 210.151 1203.2 207.677 T 902.4 171.591 T 601.6 188.317 T 300.8 116.694 T 0 66.1003 Z" fill="url(#lg-0.9498977165965765)" opacity="0.4" style="opacity:0.4;animation-play-state:paused" ></path>
<path d="M 0 0 M 0 819.251 Q 150.4 794.896 300.8 790.134 T 601.6 672.466 T 902.4 660.653 T 1203.2 622.04 T 1504 635.263 L 1504 220.953 Q 1353.6 221.206 1203.2 213.456 T 902.4 147.432 T 601.6 136.649 T 300.8 120.766 T 0 53.143 Z" fill="url(#lg-0.9498977165965765)" opacity="0.4" style="opacity:0.4;animation-play-state:paused" ></path></g></svg>